<svg height="279.857665" viewBox="0 0 1716.04 1343.22" width="357.3245" xmlns="http://www.w3.org/2000/svg" xmlns:xlink="http://www.w3.org/1999/xlink"><linearGradient id="a" gradientUnits="userSpaceOnUse" x1="1286.83" x2="1315.83" y1="765.75" y2="285.19"><stop offset="0" stop-color="#e2e553"/><stop offset="1" stop-color="#a5bd3c"/></linearGradient><linearGradient id="b" x1="992.64" x2="1238.07" xlink:href="#a" y1="119" y2="119"/><linearGradient id="c" x1="1604.12" x2="1467.41" xlink:href="#a" y1="848.24" y2="334.53"/><linearGradient id="d" x1="1339.41" x2="1157.13" xlink:href="#a" y1="103.8" y2="-339.48"/><linearGradient id="e" x1="1358.88" x2="1437.59" xlink:href="#a" y1="948.42" y2="389.15"/><linearGradient id="f" x1="1392.23" x2="1664.83" xlink:href="#a" y1="209.63" y2="209.63"/><linearGradient id="g" x1="1621.52" x2="1497.23" xlink:href="#a" y1="-28.17" y2="377.82"/><linearGradient id="h" x1="992.64" x2="1201.79" xlink:href="#a" y1="87" y2="87"/><linearGradient id="i" x1="1195.12" x2="1280.38" xlink:href="#a" y1="166.93" y2="166.93"/><linearGradient id="j" x1="1274.33" x2="1054.77" xlink:href="#a" y1="601.18" y2="969.89"/><linearGradient id="k" x1="1146.32" x2="1475.85" xlink:href="#a" y1="1156.11" y2="1156.11"/><linearGradient id="l" x1="1279.18" x2="1589.88" xlink:href="#a" y1="1394.54" y2="1162.55"/><linearGradient id="m" x1="1583.49" x2="1583.49" xlink:href="#a" y1="1326.45" y2="663.6"/><linearGradient id="n" x1="1183.28" x2="988.57" xlink:href="#a" y1="1378.82" y2="952.12"/><linearGradient id="o" x1="1313.61" x2="1359.25" xlink:href="#a" y1="252.37" y2="252.37"/><linearGradient id="p" x1="1354.21" x2="1246.49" xlink:href="#a" y1="622.92" y2="67.79"/><linearGradient id="q" x1="1223.98" x2="1045.01" xlink:href="#a" y1="391.54" y2="767.16"/><linearGradient id="r" x1="1081" x2="1114.14" xlink:href="#a" y1="1077.9" y2="746.48"/><path d="m1266.15 453.52-89.63 177.22 89.63 142.65 152.24-224.78z" fill="url(#a)"/><path d="m1106.32 188.27 131.43 49.73.32-.05-36.28-64-25.27-36-183.88-137.95 67.5 127.88z" fill="url(#b)"/><path d="m1500.77 795 194.37-2.96-.01-.06-141.29-230.74-77.94-195.95-57.51 183.32z" fill="url(#c)"/><path d="m1381 203.61 4.93-98.53-65.17 65.17 38.5 21.32z" fill="url(#d)"/><path d="m1266.15 773.39-31.22 201 216.01 56.19 49.83-235.58-82.38-246.39z" fill="url(#e)"/><path d="m1432.62 322.37 66.43-112.74 165.78-112.74-191.83 90.86-80.77 127.89z" fill="url(#f)"/><path d="m1432.62 322.37 124.52-47.12 17.86-117.25-17.84 117.26 43.72-57.26 63.95-121.15-165.78 112.78z" fill="url(#g)"/><path d="m1201.79 174-6.67-78.08-202.48-95.92 183.88 138z" fill="url(#h)"/><path d="m1238.07 238 42.31-7-85.26-135 6.67 78.08z" fill="url(#i)"/><path d="m1266.15 773.39-89.63-142.65-86.36-22.51-.14.33-117.23 191.95.2 3.95 261.94 169.93z" fill="url(#j)"/><path d="m1450.94 1030.58-216.01-56.19-88.61 137.24 60.4 226.16 2.46.05 266.67-145.17z" fill="url(#k)"/><path d="m1209.18 1337.84 252.76 5.38 184.64-114.04-170.73-36.51z" fill="url(#l)"/><path d="m1500.77 795-49.83 235.58 24.91 162.09 170.73 36.51 69.46-202.51-20.9-234.63z" fill="url(#m)"/><path d="m943.99 1040.6 121.53 204.87 141.2 92.32-60.4-226.16z" fill="url(#n)"/><path d="m1320.75 170.25-7.14 164.25 45.64-142.93z" fill="url(#o)"/><path d="m1418.39 548.61 57.51-183.32-3.1-5-98.84-16q3.51-70.33 7-140.67l-21.74-12-45.61 142.88 72.71 11.79-72.71-11.79-41.73-6.77-128.66 92.63 122.93 33.16z" fill="url(#p)"/><path d="m1266.15 453.52-122.93-33.16-7.1 5.12-45.96 182.75 86.36 22.51z" fill="url(#q)"/><path d="m1234.93 974.39-261.94-169.93-31.31 230.89 2.31 5.25 202.33 71.03z" fill="url(#r)"/><g fill="#3a3939"><path d="m35.78 761.49h-27.69v-47.29h138.46c56.66 0 96.28 39.62 96.28 98.41s-39.62 99.69-96.28 99.69h-55v104.38h-55.77zm100.55 103.1c31.52 0 49.41-20.45 49.41-52 0-31.1-17.89-51.12-48.56-51.12h-45.59v103.1z"/><path d="m366.82 794.29c62.2 0 96.28 45.59 96.28 103.1 0 6.39-1.28 20-1.28 20h-150c4.26 38.35 32.38 58.37 65.18 58.37 35 .02 61-24.26 61-24.26l22.54 37.5s-33.23 32.8-87.33 32.8c-72 0-116.73-52-116.73-113.75 0-66.9 45.15-113.76 110.34-113.76zm40.9 85.63c-.86-26-18.75-43.88-40.9-43.88-27.69 0-47.29 16.62-53.26 43.88z"/><path d="m631.81 880.35h6.82v-1.71c0-31.1-12.35-42.6-40-42.6-9.8 0-29 2.56-29 14.49v11.47h-50.29v-23c0-40.47 57.09-44.73 79.67-44.73 72.43 0 93.73 37.92 93.73 86.49v80.94c0 6 3.4 9.37 9.37 9.37h17v45.59h-48.53c-20 0-27.69-11.08-27.69-23.86a92.93 92.93 0 0 1 .43-9.37h-.85s-16.62 38.34-65.61 38.34c-38.77 0-74.13-24.28-74.13-67.74 0-68.14 93.73-73.68 129.08-73.68zm-41.75 99.26c29 0 49.42-30.67 49.42-57.08v-5.12h-9.37c-28.12 0-72.85 3.84-72.85 34.09 0 14.5 10.65 28.11 32.8 28.11z"/><path d="m771.14 854.79c0-6.39-3.41-9.38-9.38-9.38h-17v-46h49.42c19.17 0 29 8.1 29 26.42v12.77a99.32 99.32 0 0 1 -.85 13.63h.85c9.8-31.1 35.79-55.81 69-55.81a69.78 69.78 0 0 1 9.8.85v53.26a96.43 96.43 0 0 0 -13.21-.85c-23 0-49.42 13.2-59.22 45.58a131.58 131.58 0 0 0 -4.68 35.36v86.06h-53.73z"/></g></svg>